<?xml version="1.0" encoding="UTF-8"?>
<svg id="Ebene_1" data-name="Ebene 1" xmlns="http://www.w3.org/2000/svg" viewBox="0 0 320.95 356.25">
  <defs>
    <style>
      .cls-1 {
        font-family: ITCAvantGardePro-Bk, 'ITC Avant Garde Gothic Pro';
        font-size: 56.12px;
        letter-spacing: .4em;
      }

      .cls-1, .cls-2, .cls-3, .cls-4, .cls-5 {
        isolation: isolate;
      }

      .cls-6 {
        font-family: ArialHebrew-Light, 'Arial Hebrew';
        font-weight: 300;
      }

      .cls-7, .cls-4, .cls-5 {
        font-family: MyriadPro-Regular, 'Myriad Pro';
      }

      .cls-3, .cls-4, .cls-5 {
        font-size: 30.94px;
      }

      .cls-3, .cls-5 {
        letter-spacing: .24em;
      }

      .cls-4 {
        letter-spacing: .24em;
      }
    </style>
  </defs>
  <g>
    <path d="M78.83.06l84.5,99.21S227.48,8.31,262.02,0c-37.73,84.42,20.36,103.83,37.67,130.3,16.98,25.98,16.28,63.96-5.06,87.16,1.72-3.91,3.72-7.58,4.75-11.8,10.33-42.43-46-55.57-70.61-76.49-22.91-19.48-27.55-46.05-17.22-73.97-26.09,26.14-46.42,57.3-69.11,86.3L40.23,20.8v36.94c0,29.74,24.11,53.84,53.85,53.85h.12s0,0,.02,0v6.84l.04-.17h-.34c-29.68.1-53.68,24.18-53.68,53.86h0c0,29.74,24.11,53.86,53.86,53.86h.13v10.93H0V.06h78.85-.02Z"/>
    <path d="M190.87,106.91c6.28,24.62,18.66,35.17,35.5,45.3,18.73,11.26,81.77,38.43,44.38,68.72-37.54,30.41-129.35-28.43-79.88-114.02h0Z"/>
  </g>
  <g class="cls-2">
    <text class="cls-1" transform="translate(78.32 305.39)"><tspan x="0" y="0">EMS</tspan></text>
  </g>
  <g class="cls-2">
    <text class="cls-4" transform="translate(1.23 347.96)"><tspan x="0" y="0">G</tspan></text>
    <text class="cls-5" transform="translate(27.9 347.96)"><tspan x="0" y="0">R</tspan></text>
    <text class="cls-3" transform="translate(50.94 347.96)"><tspan class="cls-7" x="0" y="0">APHIC</tspan><tspan class="cls-6" x="118.04" y="0"> </tspan><tspan class="cls-7" x="134.06" y="0">DESIGN</tspan></text>
  </g>
</svg>